<svg xmlns="http://www.w3.org/2000/svg" xmlns:xlink="http://www.w3.org/1999/xlink" xmlns:inkscape="http://www.inkscape.org/namespaces/inkscape" version="1.1" width="375" height="150" viewBox="0 0 375 150">
<defs>
<clipPath id="clip_0">
<path d="M315.17903 119.29222 330.1704 111.910099 332.72419 117.09621 317.7328 124.47833 315.17903 119.29222Z"/>
</clipPath>
<clipPath id="clip_1">
<path d="M202.95507 106.08992H227.18672V112.21652H202.95507Z" clip-rule="evenodd"/>
</clipPath>
<clipPath id="clip_2">
<path d="M202.95507 106.08992H227.18672V112.21652H202.95507Z" clip-rule="evenodd"/>
</clipPath>
<clipPath id="clip_3">
<path d="M58.08054 112.578258H329.7031V116.983119H58.08054Z" clip-rule="evenodd"/>
</clipPath>
<clipPath id="clip_4">
<path d="M311.47639 121.849369 333.85456 107.96967 336.4268 112.11685 314.04859 125.996547 311.47639 121.849369Z"/>
</clipPath>
<clipPath id="clip_5">
<path d="M51.23655 58.09448H58.819017V108.56354H51.23655Z" clip-rule="evenodd"/>
</clipPath>
<clipPath id="clip_6">
<path d="M51.42994 110.08003H59.012407V123.88621H51.42994Z" clip-rule="evenodd"/>
</clipPath>
<clipPath id="clip_7">
<path d="M46.24004 118.80525H63.815526V123.6506H46.24004Z" clip-rule="evenodd"/>
</clipPath>
<clipPath id="clip_8">
<path d="M126.29924 68.78223H182.06058V76.617328H126.29924Z" clip-rule="evenodd"/>
</clipPath>
<clipPath id="clip_9">
<path d="M211.27967 100.16858H218.86212V104.57344H211.27967Z" clip-rule="evenodd"/>
</clipPath>
</defs>
<path transform="matrix(.75,0,0,.75,0,0)" d="M0 0H500V200H0Z" fill="#ffffff"/>
<path transform="matrix(.75,0,0,.75,58.08054,112.72185)" d="M0 0H362.16343V8H0Z" fill="#c6824b"/>
<path transform="matrix(.011116333,.7499176,-.7499176,.011116333,64.39657,65.27009)" d="M0 0H68.473308V8H0Z" fill="#c6824b"/>
<path transform="matrix(-.67083099,.33538903,-.33538903,-.67083099,114.121997,44.085069)" d="M0 0H78.77247V8H0Z" fill="#c6824b"/>
<path transform="matrix(.50970426,.5501833,-.5501833,.50970426,55.774499,34.05143)" d="M0 0H6.6831147V4H0Z" fill="#ffffff"/>
<path transform="matrix(0,.75,-.75,0,87.14076,12.266222)" d="M0 0H137.94083V8H0Z" fill="#c6824b"/>
<path transform="matrix(0,.75,-.75,0,44.573228,11.314178)" d="M0 0H158.18547V8H0Z" fill="#c6824b"/>
<path transform="matrix(.7499997,.00068472107,-.00068472107,.7499997,41.57596,11.397578)" d="M0 0H60.80072V8H0Z" fill="#c6824b"/>
<text xml:space="preserve" transform="matrix(.880972 0 0 .880972 121.56528 74.37729)" font-size="40" font-family="CAGenerated"><tspan y="35.99997" x="15.571442 40.25142 62.4514 82.89139 93.89137 105.89136 117.89134 143.09133 163.53131">RELI  BLE</tspan></text>
<path transform="matrix(-.64496096,-.38278637,.38278637,-.64496096,159.49448,74.686428)" d="M0 0H80.55484V8H0Z" fill="#c6824b"/>
<g clip-path="url(#clip_0)">
<path transform="matrix(1.8523728,-.91215357,.91215357,1.8523728,315.17903,119.29222)" d="M0 0H8.093074V2.7997134H0Z" fill="#ffffff"/>
</g>
<g clip-path="url(#clip_1)">
<path transform="matrix(2.064778,0,0,2.064778,202.95507,106.08992)" d="M0 0H11.73572V2.967195H0Z" fill="#ffffff"/>
</g>
<g clip-path="url(#clip_2)">
<path transform="matrix(2.064778,0,0,2.064778,202.95507,106.08992)" stroke-width="29.785284" stroke-linecap="butt" stroke-miterlimit="4" stroke-linejoin="miter" fill="none" stroke="#ffffff" d="M0 0H11.73572V2.967195H0Z"/>
</g>
<g clip-path="url(#clip_3)">
<path transform="matrix(2.064778,0,0,2.064778,58.08054,112.578258)" d="M0 0H131.55049V2.1333335H0Z" fill="#c6824b"/>
</g>
<g clip-path="url(#clip_4)">
<path transform="matrix(1.7546774,-1.0883088,1.0883088,1.7546774,311.47639,121.849369)" d="M0 0H12.753449V2.3635H0Z" fill="#ffffff"/>
</g>
<g clip-path="url(#clip_5)">
<path transform="matrix(2.064778,0,0,2.064778,51.23655,58.09448)" d="M0 0H3.672291V24.44285H0Z" fill="#ffffff"/>
</g>
<g clip-path="url(#clip_6)">
<path transform="matrix(2.064778,0,0,2.064778,51.42994,110.08003)" d="M0 0H3.672291V6.686518H0Z" fill="#ffffff"/>
</g>
<path transform="matrix(0,.75,-.75,0,61.965349,98.290348)" d="M0 0H29.002999V4H0Z" fill="#c6824b"/>
<g clip-path="url(#clip_7)">
<path transform="matrix(2.064778,0,0,2.064778,46.24004,118.80525)" d="M0 0H8.512046V2.3466666H0Z" fill="#ffffff"/>
</g>
<g clip-path="url(#clip_8)">
<path transform="matrix(2.064778,0,0,2.064778,126.29924,68.78223)" d="M0 0H27.005972V3.7946444H0Z" fill="#ffffff"/>
</g>
<path transform="matrix(-.018015234,.7497836,-.7497836,-.018015234,209.79965,94.1644)" d="M0 2C0 1.4477152 .19526214 .9763107 .5857864 .5857864 .9763107 .19526214 1.4477152 0 2 0H14.434128C14.986412 0 15.457816 .19526214 15.84834 .5857864 16.238865 .9763107 16.434126 1.4477152 16.434128 2 16.434126 2.5522848 16.238863 3.023689 15.848339 3.4142132 15.457816 3.8047376 14.986412 3.9999998 14.434128 4H2C1.4477152 3.9999998 .9763107 3.8047376 .5857864 3.4142132 .19526214 3.023689 0 2.5522848 0 2Z"/>
<path transform="matrix(0,.75,-.75,0,223.82343,94.127079)" d="M0 2C0 1.4477152 .19526214 .9763107 .5857864 .5857864 .9763107 .19526214 1.4477152 0 2 0H14.432774C14.985058 0 15.456462 .19526214 15.846987 .5857864 16.23751 .9763107 16.432774 1.4477152 16.432774 2 16.432774 2.5522848 16.23751 3.023689 15.846987 3.4142132 15.456462 3.8047376 14.985058 3.9999998 14.432774 4H2C1.4477152 3.9999998 .9763107 3.8047376 .5857864 3.4142132 .19526214 3.023689 0 2.5522848 0 2Z"/>
<path transform="matrix(-.3685094,.6532234,-.6532234,-.3685094,217.00099,83.65378)" d="M0 2C0 1.4477152 .19526214 .9763107 .5857864 .5857864 .9763107 .19526214 1.4477152 0 2 0H20.282103C20.834385 0 21.30579 .19526214 21.696316 .5857864 22.08684 .9763107 22.2821 1.4477152 22.282103 2 22.2821 2.5522848 22.08684 3.023689 21.696316 3.4142132 21.30579 3.8047376 20.834385 3.9999998 20.282103 4H2C1.4477152 3.9999998 .9763107 3.8047376 .5857864 3.4142132 .19526214 3.023689 0 2.5522848 0 2Z"/>
<path transform="matrix(.39542146,.6372926,-.6372926,.39542146,215.44116,81.85195)" d="M0 2C0 1.4477152 .19526214 .9763107 .5857864 .5857864 .9763107 .19526214 1.4477152 0 2 0H21.268975C21.821259 0 22.292662 .19526214 22.683186 .5857864 23.07371 .9763107 23.268973 1.4477152 23.268975 2 23.268973 2.5522848 23.07371 3.023689 22.683186 3.4142132 22.292662 3.8047376 21.821259 3.9999998 21.268975 4H2C1.4477152 3.9999998 .9763107 3.8047376 .5857864 3.4142132 .19526214 3.023689 0 2.5522848 0 2Z"/>
<g clip-path="url(#clip_9)">
<path transform="matrix(2.064778,0,0,2.064778,211.27967,100.16858)" d="M0 0H3.672291V2.1333335H0Z"/>
</g>
<text xml:space="preserve" transform="matrix(.880972 0 0 .880972 117.48097 123.65059)" font-size="14.66" font-family="CanvaSans"><tspan y="13.533319" x="15.253877 26.317627 37.796449 51.042894 59.881013 63.47351 67.87468 81.121128 90.66057 100.350299 111.82912 121.60472 130.44284 143.68929 152.5274 163.68419 172.2289">HOME IMPROVEMENTS</tspan></text>
<path transform="matrix(1,0,0,-1,0,150)" d="M38.550718 20.024216H44.595724V138.66333H38.550718Z" fill-opacity="0"/>
<path transform="matrix(1,0,0,-1,0,150)" d="M41.570459 132.5158H87.1765V138.60243H41.570459Z" fill-opacity="0"/>
<path transform="matrix(1,0,0,-1,0,150)" d="M81.11825 34.255655H87.16325V137.71128H81.11825Z" fill-opacity="0"/>
<path transform="matrix(1,0,0,-1,0,150)" d="M53.56551 110.21392H59.189165V115.94497H53.56551Z" fill-opacity="0"/>
<path transform="matrix(1,0,0,-1,0,150)" d="M107.52825 75.271709H162.56824V111.30539H107.52825Z" fill-opacity="0"/>
<path transform="matrix(1,0,0,-1,0,150)" d="M58.585798 79.45288H114.13205V111.27921H58.585798Z" fill-opacity="0"/>
<path transform="matrix(1,0,0,-1,0,150)" d="M51.23655 41.436464H58.819017V91.90552H51.23655Z" fill-opacity="0"/>
<path transform="matrix(1,0,0,-1,0,150)" d="M58.37472 33.268808H65.18024V84.70774H58.37472Z" fill-opacity="0"/>
<path transform="matrix(1,0,0,-1,0,150)" d="M126.29923 73.382678H182.06058V81.21777H126.29923Z" fill-opacity="0"/>
<path transform="matrix(1,0,0,-1,0,150)" d="M212.88242 51.720029H224.65177V68.14272H212.88242Z" fill-opacity="0"/>
<path transform="matrix(1,0,0,-1,0,150)" d="M206.16713 51.774255H217.01079V67.81454H206.16713Z" fill-opacity="0"/>
<path transform="matrix(1,0,0,-1,0,150)" d="M206.4932 43.50206H209.81089V55.8967H206.4932Z" fill-opacity="0"/>
<path transform="matrix(1,0,0,-1,0,150)" d="M220.81218 43.53709H223.83469V55.86167H220.81218Z" fill-opacity="0"/>
<path transform="matrix(1,0,0,-1,0,150)" d="M211.27967 45.426568H218.86212V49.83143H211.27967Z" fill-opacity="0"/>
<path transform="matrix(1,0,0,-1,0,150)" d="M202.95508 37.783475H227.18674V43.910074H202.95508Z" fill-opacity="0"/>
<path transform="matrix(1,0,0,-1,0,150)" d="M58.954099 29.946152H61.9766V51.698404H58.954099Z" fill-opacity="0"/>
<path transform="matrix(1,0,0,-1,0,150)" d="M311.47639 24.003447H336.4268V42.03032H311.47639Z" fill-opacity="0"/>
<path transform="matrix(1,0,0,-1,0,150)" d="M315.179 25.521666H332.72416V38.089906H315.179Z" fill-opacity="0"/>
<path transform="matrix(1,0,0,-1,0,150)" d="M51.42994 26.113795H59.012407V39.919969H51.42994Z" fill-opacity="0"/>
<path transform="matrix(1,0,0,-1,0,150)" d="M58.080545 33.016885H329.7031V37.421747H58.080545Z" fill-opacity="0"/>
<path transform="matrix(1,0,0,-1,0,150)" d="M58.080545 31.233153H329.7031V37.278158H58.080545Z" fill-opacity="0"/>
<path transform="matrix(1,0,0,-1,0,150)" d="M46.24004 26.34941H63.815526V31.194756H46.24004Z" fill-opacity="0"/>
</svg>
